<svg width="100" height="95" viewBox="0 0 100 95" fill="none" xmlns="http://www.w3.org/2000/svg">
<path d="M37.5625 8.39597C39.605 6.24403 43.1313 5.62757 47.2885 6.04688C51.1441 6.43577 55.1094 7.68064 57.875 8.83617V39.847C55.0072 38.7536 51.2908 37.6847 47.6021 37.3127C44.1855 36.9681 40.484 37.1954 37.5625 38.8518V8.39597ZM36 5.57207C32.9221 2.92646 28.4588 2.52805 24.3979 2.93766C19.6663 3.41491 14.8893 5.03859 11.9159 6.39014C11.3581 6.64368 11 7.19986 11 7.81258V42.1876C11 42.7189 11.2699 43.2137 11.7166 43.5013C12.1632 43.7889 12.7254 43.8299 13.2091 43.6101C15.9648 42.3574 20.4066 40.8561 24.7115 40.4219C29.1114 39.9781 32.8046 40.6945 34.7799 43.1637C35.0764 43.5343 35.5253 43.7501 36 43.7501C36.4747 43.7501 36.9236 43.5343 37.2201 43.1637C39.1954 40.6945 42.8886 39.9781 47.2885 40.4219C51.5934 40.8561 56.0352 42.3574 58.7909 43.6101C59.2746 43.8299 59.8368 43.7889 60.2834 43.5013C60.7301 43.2137 61 42.7189 61 42.1876V7.81258C61 7.19986 60.6419 6.64368 60.0841 6.39014C57.1107 5.03859 52.3337 3.41491 47.6021 2.93766C43.5412 2.52805 39.0779 2.92646 36 5.57207Z" fill="#1C1678"/>
<path d="M68.75 60.6249C68.75 64.0766 65.2522 66.8749 60.9375 66.8749C56.6228 66.8749 53.125 64.0766 53.125 60.6249C53.125 57.1731 56.6228 54.3749 60.9375 54.3749C65.2522 54.3749 68.75 57.1731 68.75 60.6249Z" fill="#8576FF"/>
<path d="M96.875 54.3749C96.875 57.8266 93.3772 60.6249 89.0625 60.6249C84.7478 60.6249 81.25 57.8266 81.25 54.3749C81.25 50.9231 84.7478 48.1249 89.0625 48.1249C93.3772 48.1249 96.875 50.9231 96.875 54.3749Z" fill="#8576FF"/>
<path fill-rule="evenodd" clip-rule="evenodd" d="M93.75 54.3749V26.2499H96.875V54.3749H93.75ZM68.75 29.3749V60.6249H65.625V29.3749H68.75Z" fill="#8576FF"/>
<path d="M65.625 29.0779C65.625 27.4725 66.8415 26.1282 68.4391 25.9684L93.439 23.4684C95.2787 23.2845 96.875 24.7291 96.875 26.5779V29.3749L65.625 32.4999V29.0779Z" fill="#8576FF"/>
<path d="M0 63.75C0 53.3947 11.1929 45 25 45C38.8071 45 50 53.3947 50 63.75C50 69.0351 47.0817 73.8118 42.3932 77.2183C41.5476 77.8326 40.8966 78.4709 40.5053 79.1522L37.33 84.6807C37.0009 85.2537 36.2487 85.625 35.4167 85.625C36.5673 85.625 37.5 86.3246 37.5 87.1875C37.5 88.0504 36.5673 88.75 35.4167 88.75C36.5673 88.75 37.5 89.4496 37.5 90.3125C37.5 91.1754 36.5673 91.875 35.4167 91.875L34.485 93.2725C33.7792 94.3312 32.3364 95 30.7582 95H19.2418C17.6636 95 16.2208 94.3312 15.515 93.2725L14.5833 91.875C13.4327 91.875 12.5 91.1754 12.5 90.3125C12.5 89.4496 13.4327 88.75 14.5833 88.75C13.4327 88.75 12.5 88.0504 12.5 87.1875C12.5 86.3246 13.4327 85.625 14.5833 85.625C13.7513 85.625 12.9991 85.2537 12.67 84.6807L9.4947 79.1522C9.10337 78.4709 8.45241 77.8326 7.60681 77.2183C2.91831 73.8118 0 69.0351 0 63.75ZM25 48.125C13.4941 48.125 4.16667 55.1206 4.16667 63.75C4.16667 68.1548 6.59412 72.1316 10.5059 74.9737C11.6 75.7686 12.6443 76.7371 13.3214 77.9159L15.9543 82.5H34.0457L36.6786 77.9159C37.3557 76.7371 38.4 75.7686 39.4941 74.9737C43.4059 72.1316 45.8333 68.1548 45.8333 63.75C45.8333 55.1206 36.5059 48.125 25 48.125Z" fill="#7BC9FF"/>
</svg>
