<svg width="121" height="109" viewBox="0 0 121 109" fill="none" xmlns="http://www.w3.org/2000/svg">
<path d="M27.0089 52.396C29.0858 50.244 32.6713 49.6276 36.8984 50.0469C40.8188 50.4358 44.8508 51.6806 47.6628 52.8362V83.847C44.7468 82.7536 40.968 81.6847 37.2173 81.3127C33.7432 80.9681 29.9796 81.1954 27.0089 82.8518V52.396ZM25.4202 49.5721C22.2906 46.9265 17.7523 46.5281 13.6231 46.9377C8.81196 47.4149 3.9547 49.0386 0.931327 50.3901C0.364148 50.6437 0 51.1999 0 51.8126V86.1876C0 86.7189 0.274462 87.2137 0.728628 87.5013C1.18279 87.7889 1.75444 87.8299 2.24619 87.6101C5.04828 86.3574 9.56471 84.8561 13.9419 84.4219C18.4158 83.9781 22.1711 84.6945 24.1796 87.1637C24.4811 87.5343 24.9375 87.7501 25.4202 87.7501C25.9028 87.7501 26.3593 87.5343 26.6608 87.1637C28.6693 84.6945 32.4245 83.9781 36.8984 84.4219C41.2756 84.8561 45.7921 86.3574 48.5941 87.6101C49.0859 87.8299 49.6575 87.7889 50.1117 87.5013C50.5659 87.2137 50.8403 86.7189 50.8403 86.1876V51.8126C50.8403 51.1999 50.4762 50.6437 49.909 50.3901C46.8856 49.0386 42.0284 47.4149 37.2173 46.9377C33.0881 46.5281 28.5497 46.9265 25.4202 49.5721Z" fill="black"/>
<path d="M63.8046 40.6251C63.8046 44.0769 60.248 46.8751 55.8608 46.8751C51.4736 46.8751 47.917 44.0769 47.917 40.6251C47.917 37.1733 51.4736 34.3751 55.8608 34.3751C60.248 34.3751 63.8046 37.1733 63.8046 40.6251Z" fill="black"/>
<path d="M92.4023 34.3751C92.4023 37.8269 88.8457 40.6251 84.4585 40.6251C80.0712 40.6251 76.5147 37.8269 76.5147 34.3751C76.5147 30.9233 80.0712 28.1251 84.4585 28.1251C88.8457 28.1251 92.4023 30.9233 92.4023 34.3751Z" fill="black"/>
<path fill-rule="evenodd" clip-rule="evenodd" d="M89.2248 34.3751V6.2501H92.4023V34.3751H89.2248ZM63.8046 9.3751V40.6251H60.6271V9.3751H63.8046Z" fill="black"/>
<path d="M60.6271 9.07818C60.6271 7.47271 61.8641 6.12844 63.4884 5.96869L88.9086 3.46869C90.7791 3.28473 92.4023 4.72937 92.4023 6.57818V9.3751L60.6271 12.5001V9.07818Z" fill="black"/>
<path d="M70.1597 77.75C70.1597 67.3947 81.5407 59 95.5798 59C109.619 59 121 67.3947 121 77.75C121 83.0351 118.033 87.8118 113.265 91.2183C112.406 91.8326 111.744 92.4709 111.346 93.1522L108.117 98.6807C107.782 99.2537 107.018 99.625 106.172 99.625C107.342 99.625 108.29 100.325 108.29 101.188C108.29 102.05 107.342 102.75 106.172 102.75C107.342 102.75 108.29 103.45 108.29 104.312C108.29 105.175 107.342 105.875 106.172 105.875L105.224 107.273C104.507 108.331 103.04 109 101.435 109H89.7249C88.1201 109 86.6531 108.331 85.9355 107.273L84.9881 105.875C83.8182 105.875 82.8698 105.175 82.8698 104.312C82.8698 103.45 83.8182 102.75 84.9881 102.75C83.8182 102.75 82.8698 102.05 82.8698 101.188C82.8698 100.325 83.8182 99.625 84.9881 99.625C84.1421 99.625 83.3773 99.2537 83.0426 98.6807L79.8139 93.1522C79.416 92.4709 78.7541 91.8326 77.8943 91.2183C73.127 87.8118 70.1597 83.0351 70.1597 77.75ZM95.5798 62.125C83.8805 62.125 74.3964 69.1206 74.3964 77.75C74.3964 82.1548 76.8646 86.1316 80.8422 88.9737C81.9546 89.7686 83.0165 90.7371 83.705 91.9159L86.3821 96.5H104.778L107.455 91.9159C108.143 90.7371 109.205 89.7686 110.317 88.9737C114.295 86.1316 116.763 82.1548 116.763 77.75C116.763 69.1206 107.279 62.125 95.5798 62.125Z" fill="black"/>
</svg>
